<?xml version="1.0" encoding="UTF-8"?>
<svg id="Layer_2" data-name="Layer 2" xmlns="http://www.w3.org/2000/svg" viewBox="0 0 359.863 173.77">
  <g id="Layer_1-2" data-name="Layer 1">
    <g>
      <path d="M251.818,154.917c-11.628-1.446-23.288-2.541-34.966-3.283-.66-.042-1.195-.604-1.195-1.257V2.279c0-.653.535-1.149,1.195-1.107,11.678.742,23.338,1.836,34.966,3.283.657.082,1.19.678,1.19,1.331v148.099c0,.653-.533,1.115-1.19,1.033Z" style="fill: #fff;"/>
      <path d="M161.006,1.49v51.074c0,.653-.536,1.199-1.196,1.222-4.805.166-9.608.392-14.409.677-.66.039-1.195-.457-1.195-1.11V2.279c0-.653-.535-1.149-1.195-1.107-11.678.742-23.339,1.836-34.966,3.283-.657.081-1.19.679-1.19,1.331,0,49.366,0,98.733,0,148.099,0,.653.533,1.115,1.19,1.033,11.628-1.446,23.288-2.541,34.966-3.283.66-.042,1.195-.604,1.195-1.257v-57.645c0-.653.535-1.215,1.195-1.254,4.801-.285,9.604-.511,14.409-.677.661-.023,1.196.489,1.196,1.142v57.645c0,.653.536,1.164,1.196,1.144,11.691-.356,23.391-.36,35.083-.011.661.02,1.196-.492,1.196-1.145,0-49.366,0-98.733,0-148.099,0-.653-.536-1.199-1.196-1.219-11.692-.349-23.391-.345-35.083.011-.661.02-1.196.567-1.196,1.22Z" style="fill: #fff;"/>
      <path d="M0,60.615v86.23c.02,11.785-.052,31.885,20.732,25.804,15.888-4.516,31.921-8.343,48.054-11.48,21.163-3.948,21.206-24.048,21.193-35.833V39.106c.012-11.602-.03-32.349-21.193-28.4-16.133,3.137-32.166,6.964-48.054,11.48C-.052,28.266.02,49.013,0,60.615ZM36.354,131.164V55.257c0-3.168,2.539-6.386,5.678-7.151,1.757-.428,3.515-.848,5.274-1.26,3.144-.736,5.697,1.266,5.697,4.434v75.907c0,3.169-2.554,6.303-5.697,7.039-1.759.412-3.517.832-5.274,1.26-3.139.765-5.677-1.154-5.678-4.322Z" style="fill: #fff;"/>
      <path d="M269.883,39.106v86.23c-.012,11.785.03,31.885,21.193,35.833,16.133,3.137,32.166,6.964,48.055,11.48,20.784,6.081,20.712-14.019,20.732-25.804V60.615c-.021-11.602.052-32.349-20.732-38.429-15.888-4.516-31.921-8.343-48.055-11.48-21.163-3.948-21.205,16.799-21.193,28.4ZM306.86,127.187V51.28c0-3.168,2.553-5.169,5.697-4.434,1.759.412,3.517.831,5.274,1.26,3.139.765,5.677,3.983,5.678,7.151v75.907c0,3.169-2.539,5.086-5.678,4.322-1.756-.428-3.514-.848-5.274-1.26-3.144-.736-5.697-3.87-5.697-7.039Z" style="fill: #fff;"/>
    </g>
  </g>
</svg>